<mxfile host="Electron" modified="2024-04-10T08:29:27.302Z" agent="Mozilla/5.0 (Windows NT 10.0; Win64; x64) AppleWebKit/537.36 (KHTML, like Gecko) draw.io/24.1.0 Chrome/120.0.6099.109 Electron/28.1.0 Safari/537.36" etag="EoWoCbn3XCWxrPEsmIPS" version="24.1.0" type="device">
  <diagram name="Page-1" id="e56a1550-8fbb-45ad-956c-1786394a9013">
    <mxGraphModel dx="880" dy="532" grid="1" gridSize="10" guides="1" tooltips="1" connect="1" arrows="1" fold="1" page="1" pageScale="1" pageWidth="1100" pageHeight="850" background="#ffffff" math="0" shadow="0">
      <root>
        <mxCell id="0" />
        <mxCell id="1" parent="0" />
        <mxCell id="8HiR8QpMQq1qVCvYqlNp-1" value="F_FX_SAMPLE_RATE" style="swimlane;html=1;fontStyle=0;childLayout=stackLayout;horizontal=1;startSize=26;fillColor=#e0e0e0;horizontalStack=0;resizeParent=1;resizeLast=0;collapsible=1;marginBottom=0;swimlaneFillColor=#ffffff;align=center;rounded=0;shadow=0;comic=0;labelBackgroundColor=none;strokeWidth=1;fontFamily=Verdana;fontSize=14;swimlaneLine=1;" parent="1" vertex="1">
          <mxGeometry x="460" y="280" width="240" height="206" as="geometry">
            <mxRectangle x="470" y="80" width="200" height="26" as="alternateBounds" />
          </mxGeometry>
        </mxCell>
        <mxCell id="8HiR8QpMQq1qVCvYqlNp-2" value="&lt;font style=&quot;font-size: 14px&quot;&gt;&lt;b&gt;AT_1&amp;nbsp; &amp;nbsp; &amp;nbsp;&amp;nbsp;&lt;/b&gt;EventIds&lt;/font&gt;" style="text;html=1;align=left;verticalAlign=middle;resizable=0;points=[];;autosize=1;labelBorderColor=none;strokeColor=#000000;" parent="8HiR8QpMQq1qVCvYqlNp-1" vertex="1">
          <mxGeometry y="26" width="240" height="30" as="geometry" />
        </mxCell>
        <mxCell id="8HiR8QpMQq1qVCvYqlNp-3" value="&lt;font style=&quot;font-size: 14px&quot;&gt;&lt;b&gt;AT_2&amp;nbsp; &amp;nbsp; &amp;nbsp;&amp;nbsp;&lt;/b&gt;EventId&lt;/font&gt;" style="text;html=1;align=left;verticalAlign=middle;resizable=0;points=[];;autosize=1;labelBorderColor=none;strokeColor=#000000;" parent="8HiR8QpMQq1qVCvYqlNp-1" vertex="1">
          <mxGeometry y="56" width="240" height="30" as="geometry" />
        </mxCell>
        <mxCell id="8HiR8QpMQq1qVCvYqlNp-4" value="&lt;b style=&quot;font-size: 14px;&quot;&gt;FK_1&amp;nbsp; &amp;nbsp; &amp;nbsp;&amp;nbsp;&lt;/b&gt;&lt;span style=&quot;font-size: 14px;&quot;&gt;EventTimeIds&lt;/span&gt;" style="text;html=1;align=left;verticalAlign=middle;resizable=0;points=[];;autosize=1;labelBorderColor=none;strokeColor=#000000;" parent="8HiR8QpMQq1qVCvYqlNp-1" vertex="1">
          <mxGeometry y="86" width="240" height="30" as="geometry" />
        </mxCell>
        <mxCell id="8HiR8QpMQq1qVCvYqlNp-6" value="&lt;font style=&quot;font-size: 14px&quot;&gt;&lt;b&gt;FK_2&lt;/b&gt;&amp;nbsp; &amp;nbsp; &amp;nbsp; BaseCurrencyIds&lt;/font&gt;" style="text;html=1;align=left;verticalAlign=middle;resizable=0;points=[];;autosize=1;labelBorderColor=none;strokeColor=#000000;" parent="8HiR8QpMQq1qVCvYqlNp-1" vertex="1">
          <mxGeometry y="116" width="240" height="30" as="geometry" />
        </mxCell>
        <mxCell id="8HiR8QpMQq1qVCvYqlNp-10" value="&lt;font style=&quot;font-size: 14px&quot;&gt;&lt;b&gt;FK_3&amp;nbsp; &amp;nbsp; &amp;nbsp;&amp;nbsp;&lt;/b&gt;QuoteCurrencyIds&lt;/font&gt;" style="text;html=1;align=left;verticalAlign=middle;resizable=0;points=[];;autosize=1;labelBorderColor=none;strokeColor=#000000;" parent="8HiR8QpMQq1qVCvYqlNp-1" vertex="1">
          <mxGeometry y="146" width="240" height="30" as="geometry" />
        </mxCell>
        <mxCell id="8HiR8QpMQq1qVCvYqlNp-12" value="&lt;font style=&quot;font-size: 14px&quot;&gt;&lt;b&gt;MS_1&lt;/b&gt;&amp;nbsp; &amp;nbsp; &amp;nbsp; Rate&lt;/font&gt;" style="text;html=1;align=left;verticalAlign=middle;resizable=0;points=[];;autosize=1;labelBorderColor=none;strokeColor=#000000;" parent="8HiR8QpMQq1qVCvYqlNp-1" vertex="1">
          <mxGeometry y="176" width="240" height="30" as="geometry" />
        </mxCell>
        <mxCell id="8HiR8QpMQq1qVCvYqlNp-54" value="L_FX_DATETIME" style="swimlane;html=1;fontStyle=0;childLayout=stackLayout;horizontal=1;startSize=26;fillColor=#e0e0e0;horizontalStack=0;resizeParent=1;resizeLast=0;collapsible=1;marginBottom=0;swimlaneFillColor=#ffffff;align=center;rounded=0;shadow=0;comic=0;labelBackgroundColor=none;strokeWidth=1;fontFamily=Verdana;fontSize=14;swimlaneLine=1;" parent="1" vertex="1">
          <mxGeometry x="130" y="330" width="220" height="236" as="geometry">
            <mxRectangle x="470" y="80" width="200" height="26" as="alternateBounds" />
          </mxGeometry>
        </mxCell>
        <mxCell id="8HiR8QpMQq1qVCvYqlNp-55" value="&lt;div&gt;&lt;font style=&quot;font-size: 14px&quot;&gt;&lt;b&gt;PK&amp;nbsp; &amp;nbsp;&amp;nbsp; &lt;/b&gt;DatetimeIds&lt;/font&gt;&lt;/div&gt;" style="text;html=1;align=left;verticalAlign=middle;resizable=0;points=[];;autosize=1;labelBorderColor=none;strokeColor=#000000;" parent="8HiR8QpMQq1qVCvYqlNp-54" vertex="1">
          <mxGeometry y="26" width="220" height="30" as="geometry" />
        </mxCell>
        <mxCell id="8HiR8QpMQq1qVCvYqlNp-56" value="&lt;font style=&quot;font-size: 14px&quot;&gt;&lt;b&gt;&amp;nbsp; &amp;nbsp; &amp;nbsp; &amp;nbsp; &amp;nbsp; &lt;/b&gt;Datetime&lt;br&gt;&lt;/font&gt;" style="text;html=1;align=left;verticalAlign=middle;resizable=0;points=[];;autosize=1;labelBorderColor=none;strokeColor=#000000;" parent="8HiR8QpMQq1qVCvYqlNp-54" vertex="1">
          <mxGeometry y="56" width="220" height="30" as="geometry" />
        </mxCell>
        <mxCell id="8HiR8QpMQq1qVCvYqlNp-57" value="&lt;font style=&quot;font-size: 14px&quot;&gt;&lt;b&gt;&amp;nbsp; &amp;nbsp; &amp;nbsp; &amp;nbsp; &amp;nbsp; &lt;/b&gt;Date&lt;/font&gt;" style="text;html=1;align=left;verticalAlign=middle;resizable=0;points=[];;autosize=1;labelBorderColor=none;strokeColor=#000000;" parent="8HiR8QpMQq1qVCvYqlNp-54" vertex="1">
          <mxGeometry y="86" width="220" height="30" as="geometry" />
        </mxCell>
        <mxCell id="8HiR8QpMQq1qVCvYqlNp-58" value="&lt;font style=&quot;font-size: 14px&quot;&gt;&lt;b&gt;&amp;nbsp; &amp;nbsp; &amp;nbsp; &amp;nbsp; &amp;nbsp; &lt;/b&gt;Day&lt;/font&gt;" style="text;html=1;align=left;verticalAlign=middle;resizable=0;points=[];;autosize=1;labelBorderColor=none;strokeColor=#000000;" parent="8HiR8QpMQq1qVCvYqlNp-54" vertex="1">
          <mxGeometry y="116" width="220" height="30" as="geometry" />
        </mxCell>
        <mxCell id="EDHor8hxsIle_m3XRFMD-3" value="&lt;font style=&quot;font-size: 14px&quot;&gt;&lt;b&gt;&amp;nbsp; &amp;nbsp; &amp;nbsp; &amp;nbsp; &amp;nbsp; &lt;/b&gt;Month&lt;/font&gt;" style="text;html=1;align=left;verticalAlign=middle;resizable=0;points=[];;autosize=1;labelBorderColor=none;strokeColor=#000000;" parent="8HiR8QpMQq1qVCvYqlNp-54" vertex="1">
          <mxGeometry y="146" width="220" height="30" as="geometry" />
        </mxCell>
        <mxCell id="EDHor8hxsIle_m3XRFMD-4" value="&lt;font style=&quot;font-size: 14px&quot;&gt;&lt;b&gt;&amp;nbsp; &amp;nbsp; &amp;nbsp; &amp;nbsp; &amp;nbsp; &lt;/b&gt;Semester&lt;/font&gt;" style="text;html=1;align=left;verticalAlign=middle;resizable=0;points=[];;autosize=1;labelBorderColor=none;strokeColor=#000000;" parent="8HiR8QpMQq1qVCvYqlNp-54" vertex="1">
          <mxGeometry y="176" width="220" height="30" as="geometry" />
        </mxCell>
        <mxCell id="EDHor8hxsIle_m3XRFMD-5" value="&lt;font style=&quot;font-size: 14px&quot;&gt;&lt;b&gt;&amp;nbsp; &amp;nbsp; &amp;nbsp; &amp;nbsp; &amp;nbsp; &lt;/b&gt;Year&lt;/font&gt;" style="text;html=1;align=left;verticalAlign=middle;resizable=0;points=[];;autosize=1;labelBorderColor=none;strokeColor=#000000;" parent="8HiR8QpMQq1qVCvYqlNp-54" vertex="1">
          <mxGeometry y="206" width="220" height="30" as="geometry" />
        </mxCell>
        <mxCell id="EDHor8hxsIle_m3XRFMD-1" value="&lt;b&gt;Note&lt;/b&gt;: &lt;i&gt;AT &lt;/i&gt;stands for Attribute, &lt;i&gt;FK &lt;/i&gt;stands for Foreing Key and &lt;i&gt;MS &lt;/i&gt;stands for measure" style="rounded=0;whiteSpace=wrap;html=1;fillColor=#fff2cc;strokeColor=#d6b656;" parent="1" vertex="1">
          <mxGeometry x="490" y="200" width="140" height="60" as="geometry" />
        </mxCell>
        <mxCell id="EDHor8hxsIle_m3XRFMD-2" style="edgeStyle=orthogonalEdgeStyle;rounded=0;orthogonalLoop=1;jettySize=auto;html=1;startArrow=classic;startFill=1;endArrow=ERoneToMany;endFill=0;" parent="1" edge="1">
          <mxGeometry relative="1" as="geometry">
            <mxPoint x="350" y="370" as="targetPoint" />
            <Array as="points">
              <mxPoint x="440" y="380" />
              <mxPoint x="420" y="380" />
              <mxPoint x="420" y="370" />
            </Array>
            <mxPoint x="460" y="380" as="sourcePoint" />
          </mxGeometry>
        </mxCell>
        <mxCell id="EDHor8hxsIle_m3XRFMD-6" value="L_FX_CURRENCY" style="swimlane;html=1;fontStyle=0;childLayout=stackLayout;horizontal=1;startSize=26;fillColor=#e0e0e0;horizontalStack=0;resizeParent=1;resizeLast=0;collapsible=1;marginBottom=0;swimlaneFillColor=#ffffff;align=center;rounded=0;shadow=0;comic=0;labelBackgroundColor=none;strokeWidth=1;fontFamily=Verdana;fontSize=14;swimlaneLine=1;" parent="1" vertex="1">
          <mxGeometry x="850" y="350" width="220" height="116" as="geometry">
            <mxRectangle x="470" y="80" width="200" height="26" as="alternateBounds" />
          </mxGeometry>
        </mxCell>
        <mxCell id="EDHor8hxsIle_m3XRFMD-7" value="&lt;div&gt;&lt;font style=&quot;font-size: 14px&quot;&gt;&lt;b&gt;PK&amp;nbsp; &amp;nbsp; &amp;nbsp;&lt;/b&gt;CurrencyIds&lt;/font&gt;&lt;/div&gt;" style="text;html=1;align=left;verticalAlign=middle;resizable=0;points=[];;autosize=1;labelBorderColor=none;strokeColor=#000000;" parent="EDHor8hxsIle_m3XRFMD-6" vertex="1">
          <mxGeometry y="26" width="220" height="30" as="geometry" />
        </mxCell>
        <mxCell id="EDHor8hxsIle_m3XRFMD-8" value="&lt;font style=&quot;font-size: 14px&quot;&gt;&lt;b&gt;&amp;nbsp; &amp;nbsp; &amp;nbsp; &amp;nbsp; &amp;nbsp; &lt;/b&gt;CurrencyName&lt;br&gt;&lt;/font&gt;" style="text;html=1;align=left;verticalAlign=middle;resizable=0;points=[];;autosize=1;labelBorderColor=none;strokeColor=#000000;" parent="EDHor8hxsIle_m3XRFMD-6" vertex="1">
          <mxGeometry y="56" width="220" height="30" as="geometry" />
        </mxCell>
        <mxCell id="EDHor8hxsIle_m3XRFMD-9" value="&lt;font style=&quot;font-size: 14px&quot;&gt;&lt;b&gt;&amp;nbsp; &amp;nbsp; &amp;nbsp; &amp;nbsp; &amp;nbsp; &lt;/b&gt;CurrencyDescription&lt;/font&gt;" style="text;html=1;align=left;verticalAlign=middle;resizable=0;points=[];;autosize=1;labelBorderColor=none;strokeColor=#000000;" parent="EDHor8hxsIle_m3XRFMD-6" vertex="1">
          <mxGeometry y="86" width="220" height="30" as="geometry" />
        </mxCell>
        <mxCell id="EDHor8hxsIle_m3XRFMD-17" style="edgeStyle=orthogonalEdgeStyle;rounded=0;orthogonalLoop=1;jettySize=auto;html=1;startArrow=classic;startFill=1;endArrow=ERoneToMany;endFill=0;entryX=-0.004;entryY=0.09;entryDx=0;entryDy=0;entryPerimeter=0;" parent="1" target="EDHor8hxsIle_m3XRFMD-7" edge="1">
          <mxGeometry relative="1" as="geometry">
            <mxPoint x="830" y="220.01000000000005" as="targetPoint" />
            <Array as="points">
              <mxPoint x="760" y="400" />
              <mxPoint x="760" y="370" />
              <mxPoint x="830" y="370" />
              <mxPoint x="830" y="379" />
            </Array>
            <mxPoint x="700" y="400.3" as="sourcePoint" />
          </mxGeometry>
        </mxCell>
        <mxCell id="jEu4hgSi6Xa9qZjjFDOv-2" value="F_FX_CURRENCY_RATE" style="swimlane;html=1;fontStyle=0;childLayout=stackLayout;horizontal=1;startSize=26;fillColor=#e0e0e0;horizontalStack=0;resizeParent=1;resizeLast=0;collapsible=1;marginBottom=0;swimlaneFillColor=#ffffff;align=center;rounded=0;shadow=0;comic=0;labelBackgroundColor=none;strokeWidth=1;fontFamily=Verdana;fontSize=14;swimlaneLine=1;" vertex="1" parent="1">
          <mxGeometry x="460" y="502" width="240" height="146" as="geometry">
            <mxRectangle x="470" y="80" width="200" height="26" as="alternateBounds" />
          </mxGeometry>
        </mxCell>
        <mxCell id="jEu4hgSi6Xa9qZjjFDOv-6" value="&lt;font style=&quot;font-size: 14px&quot;&gt;&lt;b&gt;FK_1&lt;/b&gt;&amp;nbsp; &amp;nbsp; &amp;nbsp; BaseCurrencyIds&lt;/font&gt;" style="text;html=1;align=left;verticalAlign=middle;resizable=0;points=[];;autosize=1;labelBorderColor=none;strokeColor=#000000;" vertex="1" parent="jEu4hgSi6Xa9qZjjFDOv-2">
          <mxGeometry y="26" width="240" height="30" as="geometry" />
        </mxCell>
        <mxCell id="jEu4hgSi6Xa9qZjjFDOv-7" value="&lt;font style=&quot;font-size: 14px&quot;&gt;&lt;b&gt;FK_2&amp;nbsp; &amp;nbsp; &amp;nbsp;&amp;nbsp;&lt;/b&gt;QuoteCurrencyIds&lt;/font&gt;" style="text;html=1;align=left;verticalAlign=middle;resizable=0;points=[];;autosize=1;labelBorderColor=none;strokeColor=#000000;" vertex="1" parent="jEu4hgSi6Xa9qZjjFDOv-2">
          <mxGeometry y="56" width="240" height="30" as="geometry" />
        </mxCell>
        <mxCell id="jEu4hgSi6Xa9qZjjFDOv-8" value="&lt;font style=&quot;font-size: 14px&quot;&gt;&lt;b&gt;MS_1&lt;/b&gt;&amp;nbsp; &amp;nbsp; &amp;nbsp; CurrentRate&lt;/font&gt;" style="text;html=1;align=left;verticalAlign=middle;resizable=0;points=[];;autosize=1;labelBorderColor=none;strokeColor=#000000;" vertex="1" parent="jEu4hgSi6Xa9qZjjFDOv-2">
          <mxGeometry y="86" width="240" height="30" as="geometry" />
        </mxCell>
        <mxCell id="jEu4hgSi6Xa9qZjjFDOv-9" value="&lt;font style=&quot;font-size: 14px&quot;&gt;&lt;b&gt;MS_1&lt;/b&gt;&amp;nbsp; &amp;nbsp; &amp;nbsp; YesterdayNYTimeChange&lt;/font&gt;" style="text;html=1;align=left;verticalAlign=middle;resizable=0;points=[];;autosize=1;labelBorderColor=none;strokeColor=#000000;" vertex="1" parent="jEu4hgSi6Xa9qZjjFDOv-2">
          <mxGeometry y="116" width="240" height="30" as="geometry" />
        </mxCell>
        <mxCell id="jEu4hgSi6Xa9qZjjFDOv-12" style="edgeStyle=orthogonalEdgeStyle;rounded=0;orthogonalLoop=1;jettySize=auto;html=1;startArrow=classic;startFill=1;endArrow=ERoneToMany;endFill=0;entryX=-0.008;entryY=0.348;entryDx=0;entryDy=0;entryPerimeter=0;" edge="1" parent="1" source="8HiR8QpMQq1qVCvYqlNp-10" target="EDHor8hxsIle_m3XRFMD-7">
          <mxGeometry relative="1" as="geometry">
            <mxPoint x="859" y="389" as="targetPoint" />
            <Array as="points">
              <mxPoint x="770" y="440" />
              <mxPoint x="770" y="386" />
            </Array>
            <mxPoint x="710" y="410.3" as="sourcePoint" />
          </mxGeometry>
        </mxCell>
        <mxCell id="jEu4hgSi6Xa9qZjjFDOv-13" style="edgeStyle=orthogonalEdgeStyle;rounded=0;orthogonalLoop=1;jettySize=auto;html=1;startArrow=classic;startFill=1;endArrow=ERoneToMany;endFill=0;entryX=-0.008;entryY=0.552;entryDx=0;entryDy=0;entryPerimeter=0;" edge="1" parent="1" target="EDHor8hxsIle_m3XRFMD-7">
          <mxGeometry relative="1" as="geometry">
            <mxPoint x="840" y="472" as="targetPoint" />
            <Array as="points">
              <mxPoint x="700" y="540" />
              <mxPoint x="780" y="540" />
              <mxPoint x="780" y="393" />
            </Array>
            <mxPoint x="700" y="540" as="sourcePoint" />
          </mxGeometry>
        </mxCell>
        <mxCell id="jEu4hgSi6Xa9qZjjFDOv-14" style="edgeStyle=orthogonalEdgeStyle;rounded=0;orthogonalLoop=1;jettySize=auto;html=1;startArrow=classic;startFill=1;endArrow=ERoneToMany;endFill=0;" edge="1" parent="1">
          <mxGeometry relative="1" as="geometry">
            <mxPoint x="840" y="400" as="targetPoint" />
            <Array as="points">
              <mxPoint x="790" y="567" />
              <mxPoint x="790" y="400" />
              <mxPoint x="849" y="400" />
            </Array>
            <mxPoint x="700" y="567" as="sourcePoint" />
          </mxGeometry>
        </mxCell>
        <mxCell id="jEu4hgSi6Xa9qZjjFDOv-15" value="Text" style="text;html=1;align=center;verticalAlign=middle;resizable=0;points=[];autosize=1;strokeColor=none;fillColor=none;fontColor=none;noLabel=1;" vertex="1" parent="1">
          <mxGeometry x="533" y="159" width="50" height="30" as="geometry" />
        </mxCell>
        <mxCell id="jEu4hgSi6Xa9qZjjFDOv-16" value="Text" style="text;html=1;align=center;verticalAlign=middle;resizable=0;points=[];autosize=1;strokeColor=none;fillColor=none;fontColor=none;noLabel=1;" vertex="1" parent="1">
          <mxGeometry x="1080" y="400" width="50" height="30" as="geometry" />
        </mxCell>
        <mxCell id="jEu4hgSi6Xa9qZjjFDOv-17" value="Text" style="text;html=1;align=center;verticalAlign=middle;resizable=0;points=[];autosize=1;strokeColor=none;fillColor=none;fontColor=none;noLabel=1;" vertex="1" parent="1">
          <mxGeometry x="1090" y="410" width="50" height="30" as="geometry" />
        </mxCell>
        <mxCell id="jEu4hgSi6Xa9qZjjFDOv-18" value="Text" style="text;html=1;align=center;verticalAlign=middle;resizable=0;points=[];autosize=1;strokeColor=none;fillColor=none;fontColor=none;noLabel=1;" vertex="1" parent="1">
          <mxGeometry x="555" y="660" width="50" height="30" as="geometry" />
        </mxCell>
        <mxCell id="jEu4hgSi6Xa9qZjjFDOv-19" value="Text" style="text;html=1;align=center;verticalAlign=middle;resizable=0;points=[];autosize=1;strokeColor=none;fillColor=none;fontColor=none;noLabel=1;" vertex="1" parent="1">
          <mxGeometry x="70" y="433" width="50" height="30" as="geometry" />
        </mxCell>
      </root>
    </mxGraphModel>
  </diagram>
</mxfile>
